<svg width="36" height="36" viewBox="0 0 36 36" fill="none" xmlns="http://www.w3.org/2000/svg">
<path d="M10.5 20.5C10.5 18.6144 10.5 17.6716 11.0858 17.0858C11.6716 16.5 12.6144 16.5 14.5 16.5H21.5C23.3856 16.5 24.3284 16.5 24.9142 17.0858C25.5 17.6716 25.5 18.6144 25.5 20.5V24C25.5 27.2875 25.5 28.9312 24.592 30.0376C24.4258 30.2401 24.2401 30.4258 24.0376 30.592C22.9312 31.5 21.2875 31.5 18 31.5V31.5C14.7125 31.5 13.0688 31.5 11.9624 30.592C11.7599 30.4258 11.5742 30.2401 11.408 30.0376C10.5 28.9312 10.5 27.2875 10.5 24V20.5Z" stroke="#E2342D" stroke-width="2"/>
<path d="M13.5 13C13.5 11.1144 13.5 10.1716 14.0858 9.58579C14.6716 9 15.6144 9 17.5 9H18.5C20.3856 9 21.3284 9 21.9142 9.58579C22.5 10.1716 22.5 11.1144 22.5 13V16.5H13.5V13Z" stroke="#E2342D" stroke-width="2"/>
<path d="M18 16.5V22.5" stroke="#E2342D" stroke-width="2"/>
<path d="M22.5 4.5L19.5 9" stroke="#E2342D" stroke-width="2"/>
<path d="M13.5 4.5L16.5 9" stroke="#E2342D" stroke-width="2"/>
<path d="M10.5 24H3" stroke="#E2342D" stroke-width="2"/>
<path d="M33 24H25.5" stroke="#E2342D" stroke-width="2"/>
<path d="M30 13.5V15C30 16.3978 30 17.0967 29.7716 17.6481C29.4672 18.3831 28.8831 18.9672 28.1481 19.2716C27.5967 19.5 26.8978 19.5 25.5 19.5V19.5" stroke="#E2342D" stroke-width="2"/>
<path d="M30 33V33C30 31.6022 30 30.9033 29.7716 30.3519C29.4672 29.6169 28.8831 29.0328 28.1481 28.7284C27.5967 28.5 26.8978 28.5 25.5 28.5V28.5" stroke="#E2342D" stroke-width="2"/>
<path d="M6 13.5V15C6 16.3978 6 17.0967 6.22836 17.6481C6.53284 18.3831 7.11687 18.9672 7.85195 19.2716C8.40326 19.5 9.10218 19.5 10.5 19.5V19.5" stroke="#E2342D" stroke-width="2"/>
<path d="M6 33V33C6 31.6022 6 30.9033 6.22836 30.3519C6.53284 29.6169 7.11687 29.0328 7.85195 28.7284C8.40326 28.5 9.10218 28.5 10.5 28.5V28.5" stroke="#E2342D" stroke-width="2"/>
</svg>
